<?xml version="1.0" encoding="UTF-8"?>
<svg id="katman_1" data-name="katman 1" xmlns="http://www.w3.org/2000/svg" viewBox="0 0 1080 1080">
  <defs>
    <style>
      .cls-1 {
        fill: #fff;
      }
    </style>
  </defs>
  <path class="cls-1" d="M85.88,584.71h-26.69v-103.78h26.69v103.78Z"/>
  <path class="cls-1" d="M231.47,480.93v103.78h-36.32l-70.72-77.84v77.84h-26.69v-103.78h36.18l70.87,77.99v-77.99h26.69Z"/>
  <path class="cls-1" d="M270.02,503.32v26.39h74.13v22.54h-74.13v32.47h-26.69v-103.78h109.71v22.39h-83.03Z"/>
  <path class="cls-1" d="M468.55,562.33v22.39h-106.75v-103.78h26.69v81.39h80.06Z"/>
  <path class="cls-1" d="M472.41,532.67c0-34.4,19.57-53.23,65.24-53.23s65.24,18.98,65.24,53.23-19.72,53.52-65.24,53.52-65.24-18.98-65.24-53.52ZM576.19,532.67c0-21.05-10.67-30.84-38.55-30.84s-38.55,9.64-38.55,30.84,10.82,31.13,38.55,31.13,38.55-9.93,38.55-31.13Z"/>
  <path class="cls-1" d="M678.5,586.2c-45.66,0-65.23-17.35-65.23-53.52v-51.74h26.69v51.74c0,14.53,4,31.13,38.55,31.13s38.55-16.75,38.55-31.13v-51.74h26.69v51.74c0,36.03-19.72,53.52-65.24,53.52Z"/>
  <path class="cls-1" d="M853.6,553.88l19.13,30.84h-31.43l-16.76-27.73h-43v27.73h-26.69v-103.78h81.55c23.57,0,39.73,14.97,39.73,38.1,0,16.9-8.6,29.36-22.54,34.84ZM781.54,534.6h47.44c8.01,0,20.46,0,20.46-15.57s-12.45-15.72-20.46-15.72h-47.44v31.28Z"/>
  <path class="cls-1" d="M980.96,562.62h-62.12l-11.12,22.09h-29.36l53.52-103.78h36.03l53.67,103.78h-29.5l-11.12-22.09ZM971.03,542.76l-21.05-42.11-21.2,42.11h42.25Z"/>
</svg>